<?xml version="1.0" encoding="utf-8"?>
<!-- Generator: Adobe Illustrator 26.0.1, SVG Export Plug-In . SVG Version: 6.00 Build 0)  -->
<svg version="1.1" id="Слой_1" xmlns="http://www.w3.org/2000/svg" xmlns:xlink="http://www.w3.org/1999/xlink" x="0px" y="0px"
	 viewBox="0 0 65.3 65.3" style="enable-background:new 0 0 65.3 65.3;" xml:space="preserve">
<style type="text/css">
	.st0{fill:#292828;}
</style>
<g>
	<path class="st0" d="M38.7,26.6c-0.4-6.7,1.8-13,5-19.1c0.7-1.4,1.8-2.6,3.3-3.1c2.3-0.7,4.8,0.2,5.8,2.4c0.6,1.3,1,2.8,1.1,4.2
		c0.6,6.7-0.9,13.1-3.7,19.1c-0.5,1.1-1,2.3-1.5,3.4c-0.6,1.3-1.7,1.8-3.1,1.5c-1.5-0.4-2.9-0.8-4.3-1.2c-1.6-0.5-2.5-1.7-2.6-3.5
		C38.6,29.3,38.7,28.1,38.7,26.6z M53.4,13.6c0-0.2,0-0.3,0-0.5c0-2-0.1-4.1-1.1-5.9c-1.5-2.8-5.1-3.1-7.1-0.7
		c-0.4,0.5-0.8,1-1.1,1.5c-1.9,3.7-3.5,7.5-4.3,11.6c-0.8,3.7-0.6,7.5-0.5,11.3c0,1.2,0.9,2.1,2.1,2.5c1.4,0.4,2.8,0.8,4.2,1.1
		c1.2,0.3,2,0,2.5-1.2c0.6-1.3,1.1-2.6,1.7-4C52.1,24.3,53.6,19.1,53.4,13.6z"/>
	<path class="st0" d="M26.5,38.4c0,1.4,0,2.5,0,3.6c-0.1,2-1,3.2-2.9,3.7c-1.3,0.4-2.6,0.7-3.9,1.1c-1.3,0.3-2.5-0.1-3.1-1.3
		c-1.7-3.8-3.5-7.5-4.5-11.6c-1-4.1-1.3-8.3-0.7-12.6c0.1-0.8,0.4-1.7,0.7-2.4c1.7-3.6,6.2-4.1,8.5-0.8c1.1,1.6,1.9,3.5,2.8,5.3
		C25.6,28.2,26.8,33.3,26.5,38.4z M25.8,38.4c0.1,0,0.1,0,0.2,0c-0.1-1.9-0.2-3.8-0.4-5.8c-0.5-3.9-1.9-7.5-3.5-10.9
		c-0.7-1.4-1.5-2.8-2.5-4c-1.7-1.9-4.8-1.6-6.3,0.5c-0.6,0.8-1,1.9-1.2,2.8c-0.7,3.6-0.4,7.1,0.2,10.7c0.8,4.7,2.9,9,4.8,13.4
		c0.4,0.9,1.2,1.3,2.3,1c1.4-0.4,2.8-0.7,4.3-1.1c1.3-0.4,2.1-1.4,2.2-2.8C25.8,40.9,25.8,39.7,25.8,38.4z"/>
	<path class="st0" d="M30.6,54.6c-0.1,1.4-0.1,2.4-0.2,3.3c0,0.3-0.1,0.6-0.2,0.9c-0.7,1.9-4.8,3.3-6.6,1.2
		c-2.1-2.5-3.7-5.2-4.9-8.2c-0.4-1.1,0-2.1,1-2.7c2.5-1.4,5.2-2,8-1.9c1.2,0,2,0.7,2.2,1.9C30.1,51.1,30.3,53,30.6,54.6z M29.9,55.3
		c0,0,0.1,0,0.1,0c-0.3-2-0.5-4-0.8-6c-0.1-0.9-0.7-1.4-1.5-1.4c-2.7-0.1-5.3,0.5-7.7,1.8c-0.9,0.5-1.1,1.3-0.7,2.2
		c0.2,0.5,0.4,1.1,0.7,1.6c1.3,2,2.5,4.1,3.9,6.1c0.7,1,1.9,1.1,3.1,0.8c1.4-0.4,2.5-1,2.7-2.6C29.8,56.9,29.8,56.1,29.9,55.3z"/>
	<path class="st0" d="M34.6,42.7c0.2-1.5,0.4-3.4,0.7-5.2c0.2-1.2,1.1-1.9,2.3-1.9c2.7-0.1,5.3,0.5,7.7,1.8c1.2,0.6,1.7,1.8,1.1,3
		c-1.2,2.8-2.7,5.5-4.7,7.8c-0.9,1.1-2.2,1.4-3.6,1.1c-0.4-0.1-0.8-0.2-1.2-0.4c-1.3-0.5-2.1-1.4-2.2-2.8
		C34.7,45.1,34.7,44,34.6,42.7z M35.1,43.6c0.1,0,0.1,0,0.2,0c0,0.6,0,1.2,0,1.8c0.1,1.8,0.7,2.5,2.4,3.1c1.8,0.6,2.8,0.3,3.9-1.1
		c1.7-2.2,3.1-4.6,4.3-7.2c0.4-1,0.2-1.7-0.7-2.2c-2.3-1.3-4.8-1.9-7.4-1.8c-1,0-1.6,0.5-1.8,1.5C35.6,39.6,35.4,41.6,35.1,43.6z"/>
	<path class="st0" d="M53.4,13.6c0.1,5.5-1.4,10.7-3.6,15.7c-0.6,1.3-1.1,2.7-1.7,4c-0.5,1.2-1.3,1.5-2.5,1.2
		c-1.4-0.4-2.8-0.7-4.2-1.1c-1.2-0.3-2-1.3-2.1-2.5c-0.1-3.8-0.3-7.5,0.5-11.3c0.8-4.1,2.4-7.9,4.3-11.6c0.3-0.5,0.7-1,1.1-1.5
		c2-2.4,5.6-2,7.1,0.7c1,1.9,1.1,3.9,1.1,5.9C53.4,13.2,53.4,13.4,53.4,13.6z"/>
	<path class="st0" d="M25.8,38.4c0,1.3,0,2.5,0,3.8c0,1.4-0.8,2.5-2.2,2.8c-1.4,0.4-2.8,0.8-4.3,1.1c-1,0.3-1.9,0-2.3-1
		c-1.9-4.4-4-8.6-4.8-13.4c-0.6-3.5-0.9-7.1-0.2-10.7c0.2-1,0.6-2,1.2-2.8c1.5-2.1,4.5-2.4,6.3-0.5c1,1.1,1.8,2.6,2.5,4
		c1.6,3.5,3,7.1,3.5,10.9c0.2,1.9,0.3,3.8,0.4,5.8C25.9,38.4,25.9,38.4,25.8,38.4z"/>
	<path class="st0" d="M29.9,55.3c0,0.8,0,1.7-0.1,2.5c-0.2,1.6-1.3,2.2-2.7,2.6c-1.2,0.3-2.4,0.2-3.1-0.8c-1.4-2-2.6-4-3.9-6.1
		c-0.3-0.5-0.5-1.1-0.7-1.6c-0.4-0.9-0.2-1.7,0.7-2.2c2.4-1.3,5-1.9,7.7-1.8c0.8,0,1.4,0.6,1.5,1.4c0.3,2,0.6,4,0.8,6
		C29.9,55.3,29.9,55.3,29.9,55.3z"/>
	<path class="st0" d="M35.1,43.6c0.3-2,0.5-4,0.8-6c0.2-1,0.8-1.5,1.8-1.5c2.6,0,5.1,0.6,7.4,1.8c0.9,0.5,1.2,1.3,0.7,2.2
		c-1.1,2.6-2.5,5-4.3,7.2c-1.1,1.4-2.1,1.6-3.9,1.1c-1.7-0.6-2.3-1.3-2.4-3.1c0-0.6,0-1.2,0-1.8C35.3,43.6,35.2,43.6,35.1,43.6z"/>
</g>
</svg>
