<?xml version="1.0" encoding="utf-8"?>
<!-- Generator: Adobe Illustrator 26.0.1, SVG Export Plug-In . SVG Version: 6.00 Build 0)  -->
<svg version="1.1" id="Слой_1" xmlns="http://www.w3.org/2000/svg" xmlns:xlink="http://www.w3.org/1999/xlink" x="0px" y="0px"
	 viewBox="0 0 237.3 237.3" style="enable-background:new 0 0 237.3 237.3;" xml:space="preserve">
<style type="text/css">
	.st0{fill:#FFFFFF;}
</style>
<g>
	<path class="st0" d="M143,94.7c-1.7-26.7,7.3-51.7,19.9-76.1c2.6-5.7,7.4-10.1,13.3-12.2c9-3,18.8,1,23.1,9.5
		c2.4,5.3,3.9,10.9,4.5,16.7c1.9,26.3-3.3,52.6-14.9,76.2c-2.1,4.5-4,9.2-6.1,13.7c-1.9,4.9-7.3,7.5-12.3,5.9
		c-5.8-1.5-11.5-3-17.3-4.7c-6.2-1.7-10.4-7.5-10.2-13.9C142.9,105.2,143,100.5,143,94.7z M201.8,42.9V41c0.5-8.1-1.1-16.2-4.5-23.6
		c-4.2-8.4-14.4-11.7-22.8-7.5c-2.2,1.1-4.1,2.7-5.6,4.6c-1.6,1.8-3,3.9-4.2,6c-7.7,14.6-13.5,30.1-17.2,46.2
		c-3,14.9-2.3,29.9-1.9,44.9c0.3,4.7,3.6,8.7,8.2,9.9c5.5,1.6,11.1,3,16.6,4.5c3.8,1.6,8.2-0.2,9.8-4c0.1-0.2,0.2-0.5,0.3-0.7
		c2.4-5.2,4.6-10.5,6.9-15.9c9.4-19.5,14.2-40.9,14.2-62.6V42.9z"/>
	<path class="st0" d="M94.4,141.5c0,5.5,0,9.9,0,14.4c0.4,7.1-4.5,13.5-11.6,14.7l-15.7,4.3c-4.8,1.7-10-0.6-12.2-5.1
		c-7.2-14.8-13.2-30.2-17.8-46.1c-4.2-16.4-5.2-33.3-2.9-50.1c0.5-3.4,1.5-6.6,3-9.7c3.9-9.9,15.1-14.8,25-10.9c3.7,1.5,6.9,4,9,7.4
		c4.3,6.7,8,13.8,11,21.1C91.2,100.2,95.3,120.8,94.4,141.5z M91.8,141.5h0.8c-0.6-7.6-0.8-15.3-1.7-22.9
		c-2.4-15.1-7.2-29.8-14.2-43.4c-2.5-5.8-5.9-11.1-9.9-15.9c-5.9-6.5-16-6.9-22.5-1c-1,0.9-1.8,1.9-2.5,3c-2.4,3.4-4,7.3-4.9,11.4
		c-2.3,14.1-2,28.5,0.9,42.5c3.2,18.9,11.6,35.8,19.2,53.3c1.4,3.6,5.4,5.4,9,4c0,0,0,0,0,0c5.7-1.4,11.3-2.9,17-4.5
		c5.1-1.3,8.7-5.9,8.6-11.2c0.2-5.1,0.2-10.1,0.2-15.1V141.5z"/>
	<path class="st0" d="M110.7,205.9c-0.4,5.6-0.6,9.4-0.9,13.3c-0.2,1.3-0.5,2.5-1,3.7c-2.6,7.7-19.3,13.3-26.4,4.9
		c-8.3-9.8-14.8-20.9-19.5-32.8c-1.7-4,0.1-8.7,4-10.7c9.7-5.5,20.7-8.2,31.8-7.7c4.5-0.2,8.4,3.2,8.8,7.7
		C109,192,109.9,199.7,110.7,205.9z M107.9,208.8h0.6c-1.1-8-2-15.9-3.3-23.9c-0.2-3.1-2.8-5.6-6-5.7c-10.6-0.5-21.2,2-30.5,7.1
		c-3.2,1.5-4.5,5.3-3,8.4c0.1,0.1,0.1,0.2,0.2,0.3c0.8,2.2,1.8,4.3,2.9,6.4c5.1,8,10,16.3,15.4,23.9c3,3.7,8,5.1,12.5,3.3
		c5.5-1.5,10.1-4,10.8-10.2C107.8,215.4,107.8,212.1,107.9,208.8z"/>
	<path class="st0" d="M126.8,158.5c0.8-6.1,1.7-13.5,2.9-20.8c0.6-4.6,4.6-7.9,9.2-7.6c10.7-0.3,21.3,2.2,30.7,7.2
		c4.5,2,6.5,7.3,4.5,11.8c0,0,0,0.1,0,0.1c-4.6,11.3-10.8,21.9-18.5,31.4c-3.5,4.3-9.2,6-14.4,4.4c-1.6-0.4-3.2-0.9-4.7-1.6
		c-4.9-1.5-8.4-6-8.7-11.1C127.2,168.1,127.1,163.9,126.8,158.5z M128.9,162.5h0.8c0,2.3,0,4.7,0,7c-0.5,5.9,3.6,11.2,9.4,12.3
		c7.1,2.3,11.3,1.2,15.6-4.2c6.9-8.8,12.5-18.5,16.9-28.8c1.6-3.1,0.4-7-2.7-8.6c-0.1,0-0.2-0.1-0.2-0.1c-9-5-19.1-7.5-29.4-7.4
		c-3.5-0.4-6.7,2.2-7.1,5.7c0,0.1,0,0.2,0,0.3c-1.2,7.8-2.2,15.8-3.2,23.8V162.5z"/>
	<path class="st0" d="M201.8,42.8c0,21.7-4.9,43.1-14.2,62.6c-2.3,5.3-4.5,10.5-6.9,15.9c-1.2,3.9-5.4,6.1-9.4,4.9
		c-0.2-0.1-0.5-0.2-0.7-0.3c-5.6-1.5-11.1-2.9-16.6-4.5c-4.6-1.1-8-5.1-8.2-9.9c-0.4-15-1.2-30,1.9-44.9
		c3.6-16.1,9.4-31.6,17.2-46.2c1.2-2.1,2.6-4.2,4.2-6c5.8-7.3,16.5-8.5,23.8-2.7c1.9,1.5,3.5,3.4,4.6,5.6c3.4,7.4,4.9,15.5,4.5,23.6
		L201.8,42.8z"/>
	<path class="st0" d="M91.8,141.6c0,5,0,10,0,15c0.1,5.3-3.5,9.9-8.6,11.2c-5.7,1.6-11.3,3.1-17,4.5c-3.6,1.4-7.6-0.4-9-4
		c0,0,0,0,0,0C49.6,151.1,41.3,134,38,115.2c-2.9-14-3.3-28.4-1.1-42.5c0.8-4,2.4-7.9,4.7-11.3c4.8-7.3,14.7-9.4,22.1-4.5
		c1.1,0.7,2.1,1.6,3,2.5c4.1,4.8,7.4,10.2,9.9,15.9c7,13.7,11.7,28.3,14,43.5c1,7.6,1.2,15.3,1.7,22.9L91.8,141.6z"/>
	<path class="st0" d="M107.9,208.8c0,3.3,0,6.6-0.5,9.9c-0.8,6.4-5.4,8.7-10.8,10.2c-4.4,1.8-9.5,0.5-12.5-3.3
		c-5.5-8-10.4-15.9-15.4-23.9c-1.2-2-2.1-4.2-2.9-6.4c-1.7-3.1-0.5-6.9,2.5-8.6c0.1-0.1,0.2-0.1,0.3-0.2c9.3-5.2,19.9-7.8,30.6-7.3
		c3.1,0.1,5.7,2.5,6,5.7c1.2,8,2.2,15.9,3.3,23.9H107.9z"/>
	<path class="st0" d="M128.9,162.4c1-8,2-15.9,3.2-23.9c0.2-3.6,3.3-6.2,6.9-6c0.1,0,0.2,0,0.3,0c10.3-0.1,20.4,2.4,29.4,7.5
		c3.2,1.4,4.7,5.2,3.2,8.5c-0.1,0.2-0.2,0.3-0.2,0.5c-4.4,10.3-10.1,20-16.9,28.8c-4.3,5.5-8.5,6.5-15.6,4.2c-5.9-1-10-6.4-9.4-12.3
		c0-2.3,0-4.7,0-7L128.9,162.4z"/>
</g>
</svg>
