<?xml version="1.0" encoding="utf-8"?>
<!-- Generator: Adobe Illustrator 26.0.1, SVG Export Plug-In . SVG Version: 6.00 Build 0)  -->
<svg version="1.1" id="Слой_1" xmlns="http://www.w3.org/2000/svg" xmlns:xlink="http://www.w3.org/1999/xlink" x="0px" y="0px"
	 viewBox="0 0 593.4 593.4" style="enable-background:new 0 0 593.4 593.4;" xml:space="preserve">
<style type="text/css">
	.st0{fill:#FFFFFF;}
</style>
<g>
	<path class="st0" d="M227,268.7c27.8-93,89.7-166.5,162.9-233.1c16-16.1,37.7-25,60.4-24.7c34.3,1.1,62.5,27,66.4,61.2
		c1.5,21-0.4,41.8-5.7,62.3c-26.5,91.6-77.1,174.2-146,239.7c-12.8,12.6-25.1,26.2-37.9,38.8c-12.6,14.2-34.2,16.3-49.1,4.6
		c-17.8-12.4-35.2-24.6-52.8-37.6c-18.9-13.5-25.9-38.5-17.2-59.9C213.5,304.1,219.7,288.3,227,268.7z M491.3,166.7l2.4-6.4
		c11.8-26.8,16.6-56.3,14.3-85.7c-3.7-33.7-34.2-57.7-67.9-54c-8.8,1-17.3,4-24.8,8.6c-7.7,4.1-15.1,9.5-21.8,15.1
		c-44.4,39.9-83.5,85.1-116.2,135.1c-28.8,46.8-45.3,98.5-62.7,149.9c-4.9,16.3,1.3,34,15.4,43.8c16.6,12.3,33.9,24.1,50.6,36.1
		c10.9,10.2,28.1,9.6,38.2-1.3c0.6-0.6,1.3-1.4,1.9-2c14.7-14.6,28.8-29.8,43.3-45.3c56.3-54.3,99.4-120.9,126.6-194.5l-0.1,0.3
		L491.3,166.7z"/>
	<path class="st0" d="M92.1,464.7c10.4-19.7,22.7-43.6,35.9-66.9c7.8-14.8,25.5-21,40.7-14.2c36.7,12.4,69.5,34.2,95.1,62.9
		c12.8,12.4,12.9,32.9,0.5,45.7l-0.1,0.3C234.4,525,200,553.1,162,575.7c-17.3,10.2-38.7,8.8-54.3-3.1c-4.9-3.4-9.7-7.1-13.9-11.3
		c-14.7-11.2-21-30.9-15.6-48.5C81.4,497.7,86.3,483.4,92.1,464.7z M94.5,481l2.7,1c-2.9,7.8-5.9,15.9-8.8,23.7
		c-9.1,19.4-1.8,42.5,16.5,53.5c21.2,16.7,36.8,18.2,58.2,5.3c34.4-21.2,65.6-47.1,93.4-76.5c9.3-8.5,10.1-23.2,1.6-32.5
		c-0.3-0.1-0.6-0.6-0.6-0.6c-24.3-28.2-55.4-49.4-90.4-61.9c-11.4-5.7-25.5-0.9-31.2,10.4c-0.1,0.3-0.3,0.7-0.4,1
		c-13.8,24.9-27.3,50.8-40.7,76.7l0,0L94.5,481z"/>
	<path class="st0" d="M491.4,166.4c-27.2,73.6-70.6,140-126.6,194.5c-14.4,15.1-28.4,30-43.3,45.3c-9,11.7-26,13.9-38,4.8
		c-0.6-0.6-1.4-1.3-2-1.9c-17.1-12.1-34-23.7-50.6-36.1c-14.2-9.5-20.7-27.3-15.4-43.8c17.4-51.4,33.5-103.2,62.7-149.9
		c32.4-50.1,71.5-95.4,116.2-135.1c6.7-5.6,14.1-11,21.8-15.1c28.8-17.5,66.6-8.1,84.1,20.7c4.6,7.5,7.6,15.9,8.6,24.8
		c2.3,29.4-2.8,58.7-14.3,85.7L491.4,166.4z"/>
	<path class="st0" d="M94.6,480.7c13.4-25.9,26.7-51.4,40.8-77c5.2-12,19-16.9,30.9-11.7c0.3,0.1,0.7,0.3,1,0.4
		c35.1,12.6,66.2,33.7,90.3,62.3c9.1,8.8,9.4,23.5,0.2,32.8c-0.6,0.6-1.1,0.8-1.3,1.4c-27.8,29.4-59.3,55.2-93.4,76.5
		c-21.5,13.3-37,11.4-58.2-5.3c-18.8-10.8-25.9-34.2-16.5-53.5c2.9-7.8,5.9-15.9,8.8-23.7L94.6,480.7z"/>
</g>
</svg>
