<?xml version="1.0" encoding="utf-8"?>
<!-- Generator: Adobe Illustrator 26.0.1, SVG Export Plug-In . SVG Version: 6.00 Build 0)  -->
<svg version="1.1" id="Слой_1" xmlns="http://www.w3.org/2000/svg" xmlns:xlink="http://www.w3.org/1999/xlink" x="0px" y="0px"
	 viewBox="0 0 647.5 185" style="enable-background:new 0 0 647.5 185;" xml:space="preserve">
<style type="text/css">
	.st0{fill:#DC2626;}
</style>
<g>
	<path class="st0" d="M59.6,111.3h15.5L98.3,88L75.2,64.7H28.5L13.4,49.2h69.5l38.8,38.9l-38.8,38.8H59.6V111.3z M51.8,126.9V72.5
		H32.5v54.3L51.8,126.9L51.8,126.9z"/>
	<path class="st0" d="M207.2,64.8l-14.9-15.5H250l23.3,23.3l-11.6,11.7h-23.3L250,72.7l-7.8-7.8L207.2,64.8z M230.4,127H211V72.6
		h19.4V127z M238.2,92v15.5h15.5l19.4,19.4h23.3l-34.9-35L238.2,92z"/>
	<path class="st0" d="M277,127V49.3h19.4V127H277z M312,80.4l31.1-31h23.3l-38.9,38.8l38.8,38.8H343l-31-31.1h-7.8V80.4H312
		L312,80.4z"/>
	<path class="st0" d="M144.9,64.8h-23.3l-15-15.6h46.1l77.6,77.7H207L144.9,64.8z M125.6,72.5v54.3H145v-19.4h34.9l-15.5-15.5H145
		V72.6L125.6,72.5z"/>
	<path class="st0" d="M400.5,111.3H416L439.3,88L416,64.7h-46.6l-15.1-15.5h69.5l38.8,38.9l-38.9,38.8h-23.3L400.5,111.3z
		 M392.8,126.9V72.5h-19.4v54.3L392.8,126.9L392.8,126.9z"/>
	<path class="st0" d="M462.6,64.8l-15-15.6l108.2,0.1l-15.5,15.6L462.6,64.8z M466.5,126.9h69.9L521,111.4h-35V95.9h19.4L521,80.4
		h-35v-7.8h-19.4L466.5,126.9z"/>
	<path class="st0" d="M559.8,49.3v34.9l35-34.9H618l-77.7,77.6V49.3H559.8z"/>
	<polygon class="st0" points="617.5,81.4 617.5,127.6 571.4,127.6 585.4,113.6 603.5,113.6 603.5,95.4 	"/>
	<path class="st0" d="M209.3,145.8v15.7h-2.6v-18.3h11.8c2.9,0,5.2,2.3,5.2,5.2s-2.3,5.2-5.2,5.2h-2.1l7.8,7.8h-3.7L210.1,151h8.4
		c0.7,0,1.4-0.3,1.9-0.8c1-1,1-2.7,0-3.7c-0.5-0.5-1.2-0.8-1.9-0.8L209.3,145.8z"/>
	<path class="st0" d="M241.6,143.2v2.6h-13.1v13.1h13.1v2.6h-15.7v-18.3L241.6,143.2L241.6,143.2z M241.6,153.6h-10.5V151h10.5
		V153.6z"/>
	<path class="st0" d="M246.8,145.8v15.7h-2.6v-18.3h15.7v2.6H246.8L246.8,145.8z M259.9,153.7h-10.4v-2.6h10.4V153.7z"/>
	<path class="st0" d="M262.4,143.2h2.6v15.7h13.1v2.6h-15.7V143.2z"/>
	<path class="st0" d="M295.9,143.2v2.6h-13v13.1h13v2.6h-15.7v-18.3L295.9,143.2L295.9,143.2z M295.9,153.6h-10.4V151h10.4V153.6z"
		/>
	<path class="st0" d="M306.9,143.2h7.8v2.6h-7.8c-3.6,0.1-6.4,3.2-6.3,6.8c0.1,3.4,2.9,6.1,6.3,6.3h7.8v2.6h-7.8
		c-5-0.2-9-4.4-8.8-9.4C298.4,147.2,302.1,143.4,306.9,143.2z"/>
	<path class="st0" d="M333,145.8h-15.7v-2.6H333V145.8z M326.5,161.5h-2.6v-13h2.6V161.5z"/>
	<path class="st0" d="M338.4,161.5h-2.6v-2.6h2.6V161.5z"/>
	<path class="st0" d="M356.6,143.2h7.8v2.6h-7.8c-3.6,0.1-6.4,3.2-6.3,6.8c0.1,3.4,2.9,6.1,6.3,6.3h5.2v-5.2h-5.2v-2.6h7.8v10.4
		h-7.8c-5-0.2-9-4.4-8.8-9.4C347.9,147.2,351.9,143.4,356.6,143.2z"/>
	<path class="st0" d="M370,158.9h8.8v2.6h-13l9.7-19.9l9.7,19.9h-2.9l-6.7-13.9L370,158.9z"/>
	<path class="st0" d="M389.4,147.1v14.4h-2.6v-18.3h2.6l6.5,6.5l6.5-6.5h2.6v18.3h-2.6v-14.3l-6.5,6.5L389.4,147.1z"/>
	<path class="st0" d="M410.1,161.5h-2.6v-18.3h2.6V161.5z"/>
	<path class="st0" d="M415.4,145.8v15.7h-2.6v-18.3h15.7v2.6H415.4L415.4,145.8z M428.4,153.7H418v-2.6h10.4V153.7z"/>
	<path class="st0" d="M437.5,152.8l-8.2-9.6h3.4l6,7.1l6-7.1h3.4l-8.1,9.6v8.7h-2.6L437.5,152.8z"/>
	<path class="st0" d="M452.5,161.5h-2.6v-2.6h2.6V161.5z"/>
	<path class="st0" d="M461.8,143.2h11.8c2.9,0,5.2,2.3,5.2,5.2s-2.3,5.2-5.2,5.2h-9.1v7.8h-2.6L461.8,143.2L461.8,143.2z
		 M464.4,145.8v5.2h9.1c0.7,0,1.4-0.3,1.9-0.8c1-1,1-2.7,0-3.7c-0.5-0.5-1.2-0.8-1.9-0.8L464.4,145.8L464.4,145.8z"/>
	<path class="st0" d="M483.4,145.8v15.7h-2.6v-18.3h11.8c2.9,0,5.2,2.3,5.2,5.2s-2.3,5.2-5.2,5.2h-2.1l7.8,7.8h-3.7L484.2,151h8.4
		c0.7,0,1.4-0.3,1.8-0.8c1-1,1-2.7,0-3.7c-0.5-0.5-1.2-0.8-1.8-0.8L483.4,145.8z"/>
	<path class="st0" d="M509,162.1c-5.4,0-9.8-4.4-9.8-9.8c0-5.4,4.4-9.8,9.8-9.8c5.4,0,9.8,4.4,9.8,9.8c0,2.6-1,5.1-2.9,6.9
		C514.2,161.1,511.6,162.2,509,162.1z M509,159.5c4,0,7.2-3.2,7.2-7.2s-3.2-7.2-7.2-7.2s-7.2,3.2-7.2,7.2c0,1.9,0.8,3.7,2.1,5.1
		C505.2,158.8,507,159.6,509,159.5z"/>
	<path class="st0" d="M529.9,143.2h7.8v2.6h-7.8c-3.6,0.1-6.4,3.2-6.3,6.8c0.1,3.4,2.9,6.1,6.3,6.3h5.2v-5.2h-5.2v-2.6h7.8v10.4
		h-7.8c-5-0.2-9-4.4-8.8-9.4C521.2,147.2,525.1,143.4,529.9,143.2z"/>
	<path class="st0" d="M543,145.8v15.7h-2.6v-18.3h11.8c2.9,0,5.2,2.3,5.2,5.2s-2.3,5.2-5.2,5.2l0,0h-2.1l7.8,7.8h-3.7l-10.5-10.3
		h8.4c0.7,0,1.4-0.3,1.8-0.8c1-1,1-2.7,0-3.7c-0.5-0.5-1.2-0.8-1.8-0.8L543,145.8L543,145.8z"/>
	<path class="st0" d="M575.2,143.2v2.6h-13v13.1h13v2.6h-15.7v-18.3L575.2,143.2L575.2,143.2z M575.2,153.6h-10.4V151h10.4V153.6z"
		/>
	<path class="st0" d="M582.4,143.2h11.8v2.6h-11.8c-1.4,0-2.6,1.2-2.6,2.6c0,0.7,0.3,1.4,0.8,1.8c0.5,0.5,1.1,0.8,1.8,0.8h6.5
		c2.9,0,5.2,2.3,5.2,5.2s-2.3,5.2-5.2,5.2h-11.8v-2.6h11.8c0.7,0,1.4-0.3,1.8-0.8c1-1,1-2.7,0-3.7c-0.5-0.5-1.2-0.8-1.8-0.8h-6.5
		c-2.9,0-5.2-2.3-5.2-5.2C577.2,145.4,579.5,143.2,582.4,143.2L582.4,143.2z"/>
	<path class="st0" d="M600.9,143.2h11.7v2.6h-11.7c-1.4,0-2.6,1.2-2.6,2.6c0,0.7,0.3,1.3,0.8,1.8s1.2,0.8,1.8,0.8h6.5
		c2.9,0,5.2,2.3,5.2,5.2s-2.3,5.2-5.2,5.2h-11.7v-2.6h11.7c1.4,0,2.6-1.2,2.6-2.6c0-0.7-0.3-1.3-0.8-1.8s-1.2-0.8-1.8-0.8h-6.5
		c-2.9,0-5.2-2.3-5.2-5.2S598,143.2,600.9,143.2z"/>
	<path class="st0" d="M617.8,161.5h-2.6v-2.6h2.6V161.5z"/>
</g>
</svg>
