<svg id="Слой_1" data-name="Слой 1" xmlns="http://www.w3.org/2000/svg" viewBox="0 0 65.28 65.28"><defs><style>.cls-1{fill:#fff;}</style></defs><path class="cls-1" d="M38.66,26.61c-.42-6.72,1.83-13,5-19.12A5.84,5.84,0,0,1,47,4.42a4.78,4.78,0,0,1,5.8,2.39A13.07,13.07,0,0,1,53.93,11a37.29,37.29,0,0,1-3.74,19.14c-.53,1.14-1,2.31-1.53,3.45a2.47,2.47,0,0,1-3.09,1.47c-1.46-.37-2.9-.76-4.34-1.17a3.49,3.49,0,0,1-2.56-3.49C38.64,29.25,38.66,28.08,38.66,26.61Zm14.77-13v-.48a12.47,12.47,0,0,0-1.12-5.93,4.26,4.26,0,0,0-7.13-.73,8.74,8.74,0,0,0-1.06,1.51,46.55,46.55,0,0,0-4.31,11.6c-.76,3.74-.57,7.51-.47,11.28a2.72,2.72,0,0,0,2.07,2.48c1.39.39,2.78.76,4.18,1.13a1.88,1.88,0,0,0,2.53-1.17c.61-1.31,1.15-2.64,1.74-4A36.45,36.45,0,0,0,53.43,13.57Z"/><path class="cls-1" d="M26.46,38.38c0,1.37,0,2.49,0,3.62a3.54,3.54,0,0,1-2.91,3.7l-3.95,1.07a2.48,2.48,0,0,1-3.06-1.29A71.52,71.52,0,0,1,12.08,33.9a33.12,33.12,0,0,1-.73-12.58,8.74,8.74,0,0,1,.75-2.44A4.84,4.84,0,0,1,20.65,18a31.81,31.81,0,0,1,2.76,5.31A32,32,0,0,1,26.46,38.38Zm-.66,0H26c-.14-1.92-.19-3.85-.43-5.76A36.24,36.24,0,0,0,22,21.72a16.41,16.41,0,0,0-2.49-4,4,4,0,0,0-6.29.5A7.74,7.74,0,0,0,12,21.09a29.78,29.78,0,0,0,.23,10.69c.81,4.74,2.92,9,4.83,13.38a1.75,1.75,0,0,0,2.27,1q2.13-.54,4.26-1.14a2.85,2.85,0,0,0,2.17-2.82C25.82,40.93,25.8,39.67,25.8,38.41Z"/><path class="cls-1" d="M30.55,54.57c-.09,1.4-.14,2.37-.22,3.33a4.3,4.3,0,0,1-.24.92c-.65,1.93-4.85,3.34-6.63,1.22a29,29,0,0,1-4.89-8.24,2.11,2.11,0,0,1,1-2.68,14.92,14.92,0,0,1,8-1.93,2.13,2.13,0,0,1,2.22,1.93C30.12,51.07,30.34,53,30.55,54.57Zm-.7.71.14,0c-.27-2-.51-4-.82-6a1.54,1.54,0,0,0-1.5-1.42A14.47,14.47,0,0,0,20,49.65a1.59,1.59,0,0,0-.72,2.2,10.54,10.54,0,0,0,.74,1.6c1.27,2,2.51,4.09,3.88,6a2.69,2.69,0,0,0,3.13.82c1.37-.38,2.53-1,2.72-2.56C29.81,56.94,29.81,56.11,29.85,55.28Z"/><path class="cls-1" d="M34.58,42.65c.21-1.53.43-3.39.73-5.23a2.21,2.21,0,0,1,2.31-1.92,15.35,15.35,0,0,1,7.72,1.82,2.25,2.25,0,0,1,1.12,3A30.28,30.28,0,0,1,41.8,48.2a3.38,3.38,0,0,1-3.62,1.1A10.19,10.19,0,0,1,37,48.91a3.1,3.1,0,0,1-2.18-2.8C34.69,45.07,34.66,44,34.58,42.65Zm.55,1,.2,0c0,.59,0,1.18,0,1.77A2.87,2.87,0,0,0,37.7,48.5c1.78.58,2.83.31,3.91-1.06a32.52,32.52,0,0,0,4.25-7.24A1.61,1.61,0,0,0,45.11,38a14.66,14.66,0,0,0-7.38-1.85,1.62,1.62,0,0,0-1.79,1.5C35.63,39.6,35.39,41.61,35.13,43.62Z"/><path class="cls-1" d="M53.43,13.57A36.45,36.45,0,0,1,49.86,29.3c-.59,1.32-1.13,2.65-1.74,4a1.88,1.88,0,0,1-2.53,1.17c-1.4-.37-2.79-.74-4.18-1.13a2.72,2.72,0,0,1-2.07-2.48c-.1-3.77-.29-7.54.47-11.28a46.55,46.55,0,0,1,4.31-11.6,8.74,8.74,0,0,1,1.06-1.51,4.26,4.26,0,0,1,7.13.73,12.47,12.47,0,0,1,1.12,5.93Z"/><path class="cls-1" d="M25.8,38.41c0,1.26,0,2.52,0,3.78A2.85,2.85,0,0,1,23.63,45q-2.13.6-4.26,1.14a1.75,1.75,0,0,1-2.27-1c-1.91-4.35-4-8.64-4.83-13.38A29.78,29.78,0,0,1,12,21.09a7.74,7.74,0,0,1,1.19-2.84,4,4,0,0,1,6.29-.5,16.41,16.41,0,0,1,2.49,4,36.24,36.24,0,0,1,3.52,10.93c.24,1.91.29,3.84.43,5.76Z"/><path class="cls-1" d="M29.85,55.28c0,.83,0,1.66-.13,2.48-.19,1.6-1.35,2.18-2.72,2.56a2.69,2.69,0,0,1-3.13-.82c-1.37-2-2.61-4-3.88-6a10.54,10.54,0,0,1-.74-1.6,1.59,1.59,0,0,1,.72-2.2,14.47,14.47,0,0,1,7.7-1.84,1.54,1.54,0,0,1,1.5,1.42c.31,2,.55,4,.82,6Z"/><path class="cls-1" d="M35.13,43.62c.26-2,.5-4,.81-6a1.62,1.62,0,0,1,1.79-1.5A14.66,14.66,0,0,1,45.11,38a1.61,1.61,0,0,1,.75,2.25,32.52,32.52,0,0,1-4.25,7.24c-1.08,1.37-2.13,1.64-3.91,1.06a2.87,2.87,0,0,1-2.37-3.09c0-.59,0-1.18,0-1.77Z"/></svg>