<svg width="12" height="12" viewBox="0 0 12 12" fill="none" xmlns="http://www.w3.org/2000/svg">
<path fill-rule="evenodd" clip-rule="evenodd" d="M5.99997 0C6.19888 0 6.38965 0.0790178 6.5303 0.21967C6.67095 0.360322 6.74997 0.551088 6.74997 0.75V9.4395L9.96897 6.219C10.0387 6.14927 10.1215 6.09395 10.2126 6.05621C10.3037 6.01848 10.4014 5.99905 10.5 5.99905C10.5986 5.99905 10.6962 6.01848 10.7873 6.05621C10.8785 6.09395 10.9612 6.14927 11.031 6.219C11.1007 6.28873 11.156 6.37152 11.1938 6.46262C11.2315 6.55373 11.2509 6.65138 11.2509 6.75C11.2509 6.84862 11.2315 6.94627 11.1938 7.03738C11.156 7.12848 11.1007 7.21127 11.031 7.281L6.53097 11.781C6.4613 11.8508 6.37854 11.9063 6.28742 11.9441C6.1963 11.9819 6.09862 12.0013 5.99997 12.0013C5.90132 12.0013 5.80364 11.9819 5.71252 11.9441C5.6214 11.9063 5.53864 11.8508 5.46897 11.781L0.968971 7.281C0.899239 7.21127 0.843925 7.12848 0.806186 7.03738C0.768447 6.94627 0.749023 6.84862 0.749023 6.75C0.749023 6.65138 0.768447 6.55373 0.806186 6.46262C0.843925 6.37152 0.899239 6.28873 0.968971 6.219C1.1098 6.07817 1.30081 5.99905 1.49997 5.99905C1.59859 5.99905 1.69624 6.01848 1.78735 6.05621C1.87846 6.09395 1.96124 6.14927 2.03097 6.219L5.24997 9.4395V0.75C5.24997 0.551088 5.32899 0.360322 5.46964 0.21967C5.61029 0.0790178 5.80106 0 5.99997 0Z" fill="black"/>
</svg>
