<svg width="12" height="16" viewBox="0 0 12 16" fill="none" xmlns="http://www.w3.org/2000/svg">
<path d="M11.8169 11.6787C11.3334 13.6176 10.1768 14.9889 8.17635 15.8949C8.95857 14.7684 9.69206 13.7855 9.16502 12.5104C8.8983 11.8658 8.4046 11.4057 7.64034 11.1237C7.68907 11.4941 7.78909 11.7837 7.74677 12.0529C7.69676 12.3835 7.60315 12.8846 7.39028 12.9717C7.18383 13.055 6.8235 13.0076 6.57601 12.8833C6.57601 12.8833 6.56575 12.8782 6.54651 12.8679C6.36827 12.7718 5.41935 12.2233 5.0821 11.3134C4.64483 10.1293 4.79486 8.53248 4.79486 8.53248C4.79486 8.53248 2.99063 11.0071 3.47022 13.4997C3.77028 15.0606 4.47428 15.8783 4.56019 15.9744C4.56276 15.9782 4.56532 15.9795 4.56532 15.9808L4.56917 15.9846C4.51916 16.0384 4.61918 15.9308 4.56917 15.9846C3.60614 15.8091 3.29197 15.6911 2.78674 15.3695C-0.00360337 13.5971 -0.838397 10.1882 0.9248 7.39319C1.66855 6.2129 2.67517 5.19792 3.55741 4.10477C4.05239 3.49091 4.57045 2.89243 5.02055 2.24782C5.48603 1.58142 5.70659 0.833 5.4373 0C7.25179 0.586944 8.94703 2.82195 8.38922 4.90188C8.25714 5.39271 8.18789 5.90148 8.12377 6.40769C8.05966 6.8998 8.23662 7.39319 8.72006 7.47137C9.06885 7.52775 9.50997 7.29708 9.83953 7.08562C10.0678 6.94081 10.1755 6.60889 10.3691 6.31286C11.7579 7.88018 12.3247 9.63332 11.8169 11.6787Z" fill="black"/>
</svg>
