<?xml version="1.0" encoding="utf-8"?>
<!-- Generator: Adobe Illustrator 26.0.3, SVG Export Plug-In . SVG Version: 6.00 Build 0)  -->
<svg version="1.1" id="Слой_1" xmlns="http://www.w3.org/2000/svg" xmlns:xlink="http://www.w3.org/1999/xlink" x="0px" y="0px"
	 viewBox="0 0 74.8 96" style="enable-background:new 0 0 74.8 96;" xml:space="preserve">
<style type="text/css">
	.st0{fill:none;stroke:#FF2E35;stroke-width:2;}
	.st1{fill:#FF2E35;}
</style>
<g>
	<circle class="st0" cx="37.4" cy="83.5" r="9"/>
	<path class="st1" d="M72.7,38.6c0-19.4-15.9-35.2-35.6-35C18.3,3.7,2.8,18.5,2.1,37.2c-0.6,14.5,7.7,27.2,20,33
		c0.2,0.1,11,6.3,14.6,12.9c0.3,0.6,1.1,0.6,1.4,0c3.6-6.7,14.6-12.9,14.6-12.9C64.5,64.5,72.7,52.5,72.7,38.6z M37.4,25.7
		c7.1,0,12.9,5.7,12.9,12.8c0,7.1-5.8,12.8-12.9,12.8c-7.1,0-12.9-5.7-12.9-12.8C24.4,31.5,30.2,25.7,37.4,25.7z"/>
</g>
</svg>
