<?xml version="1.0" encoding="utf-8"?>
<!-- Generator: Adobe Illustrator 26.0.3, SVG Export Plug-In . SVG Version: 6.00 Build 0)  -->
<svg version="1.1" id="Слой_1" xmlns="http://www.w3.org/2000/svg" xmlns:xlink="http://www.w3.org/1999/xlink" x="0px" y="0px"
	 viewBox="0 0 74.8 96" style="enable-background:new 0 0 74.8 96;" xml:space="preserve">
<style type="text/css">
	.st0{fill:none;stroke:#FF2E35;stroke-width:2;}
	.st1{fill:#FF2E35;}
</style>
<circle class="st0" cx="36.8" cy="86" r="9"/>
<path class="st1" d="M74.8,37.7C74.8,16.8,57.6-0.1,36.5,0C16.3,0.1-0.4,16.1-1.2,36.2c-0.6,15.6,8.3,29.2,21.5,35.5
	c0.2,0.1,11.9,6.8,15.7,13.9c0.3,0.6,1.2,0.6,1.5,0c3.9-7.2,15.7-13.9,15.7-13.9C66,65.6,74.8,52.7,74.8,37.7z M36.8,23.9
	c7.7,0,13.9,6.2,13.9,13.8c0,7.6-6.2,13.8-13.9,13.8c-7.7,0-13.9-6.2-13.9-13.8C22.8,30.1,29.1,23.9,36.8,23.9z"/>
</svg>
