<?xml version="1.0" encoding="utf-8"?>
<!-- Generator: Adobe Illustrator 26.0.1, SVG Export Plug-In . SVG Version: 6.00 Build 0)  -->
<svg version="1.1" id="Слой_1" xmlns="http://www.w3.org/2000/svg" xmlns:xlink="http://www.w3.org/1999/xlink" x="0px" y="0px"
	 viewBox="0 0 138 138" style="enable-background:new 0 0 138 138;" xml:space="preserve">
<style type="text/css">
	.st0{fill:#DC2626;}
</style>
<path class="st0" d="M23.1,28.6l37.5,42.5c4.1,4.7,11.2,5.1,15.8,1c0.4-0.3,0.7-0.7,1-1l36.8-41.8c0.3-0.3,0.6-0.6,1-0.8
	c-1.6-0.7-3.3-1.1-5.1-1.1H27.8c-1.7,0-3.3,0.3-4.9,1C23,28.5,23,28.6,23.1,28.6z"/>
<path class="st0" d="M121,33.5c-0.2,0.4-0.4,0.9-0.7,1.2L83.4,76.5c-7,8-19.2,8.7-27.1,1.7c-0.6-0.5-1.2-1.1-1.7-1.7L17.1,33.9
	c-0.1-0.1-0.1-0.2-0.2-0.3c-1.2,2-1.8,4.2-1.8,6.6v57.6c0,7,5.7,12.7,12.7,12.7h82.4c7,0,12.8-5.6,12.8-12.7c0,0,0,0,0-0.1V40.2
	C123,37.8,122.3,35.5,121,33.5z"/>
</svg>
