<?xml version="1.0" encoding="utf-8"?>
<!-- Generator: Adobe Illustrator 26.0.1, SVG Export Plug-In . SVG Version: 6.00 Build 0)  -->
<svg version="1.1" id="Слой_1" xmlns="http://www.w3.org/2000/svg" xmlns:xlink="http://www.w3.org/1999/xlink" x="0px" y="0px"
	 viewBox="0 0 138 138" style="enable-background:new 0 0 138 138;" xml:space="preserve">
<style type="text/css">
	.st0{fill:#DC2626;}
</style>
<path class="st0" d="M99.1,119.3c0-11.8,0-23.4,0-34.9c0-2.1-0.1-4.2-0.4-6.4c-1-6.8-5-10.5-11.2-10.4s-11.3,4.8-12,11
	c-0.2,1.3-0.2,2.5-0.2,3.8c0,11.5,0,23.1,0,34.6v2.3H52.8V51.7h22.3v9.4c0.7-0.9,1.1-1.3,1.4-1.7c5.3-7.3,12.6-10,21.3-9.3
	c16,1.2,22,12.7,23.3,23.8c0.3,2.8,0.4,5.7,0.4,8.5c0,11.6,0,23.2,0,34.8v2.3L99.1,119.3z"/>
<path class="st0" d="M17.8,51.6H40v67.7H17.8V51.6z"/>
<path class="st0" d="M16.4,30.4c0-6.9,5.2-11.7,12.6-11.8s12.6,4.9,12.6,11.8S36.3,42.1,28.8,42S16.4,37.3,16.4,30.4z"/>
</svg>
